<mxfile host="app.diagrams.net" modified="2023-10-31T16:26:09.466Z" agent="Mozilla/5.0 (X11; Linux x86_64) AppleWebKit/537.36 (KHTML, like Gecko) Chrome/118.0.0.0 Safari/537.36" etag="3BxBp6fDS2yEZLrCUutm" version="22.0.8" type="device">
  <diagram name="Page-1" id="epnb48LvhOInL9ynO_Ba">
    <mxGraphModel dx="1605" dy="1173" grid="1" gridSize="10" guides="1" tooltips="1" connect="1" arrows="1" fold="1" page="1" pageScale="1" pageWidth="850" pageHeight="1100" math="1" shadow="0">
      <root>
        <mxCell id="0" />
        <mxCell id="1" parent="0" />
        <mxCell id="QAfETRHvvmFpUVtF6TgT-2" style="edgeStyle=orthogonalEdgeStyle;rounded=0;orthogonalLoop=1;jettySize=auto;html=1;exitX=-0.001;exitY=0.08;exitDx=0;exitDy=0;endArrow=none;endFill=0;startArrow=classic;startFill=1;exitPerimeter=0;" edge="1" parent="1">
          <mxGeometry relative="1" as="geometry">
            <mxPoint x="80.16" y="100.4" as="targetPoint" />
            <mxPoint x="120.00000000000003" y="99.99999999999997" as="sourcePoint" />
          </mxGeometry>
        </mxCell>
        <mxCell id="QAfETRHvvmFpUVtF6TgT-4" style="edgeStyle=orthogonalEdgeStyle;shape=connector;rounded=0;orthogonalLoop=1;jettySize=auto;html=1;exitX=0;exitY=0.5;exitDx=0;exitDy=0;labelBackgroundColor=default;strokeColor=default;align=center;verticalAlign=middle;fontFamily=Helvetica;fontSize=11;fontColor=default;startArrow=classic;startFill=1;endArrow=none;endFill=0;" edge="1" parent="1">
          <mxGeometry relative="1" as="geometry">
            <mxPoint x="80" y="160" as="targetPoint" />
            <mxPoint x="120.00000000000006" y="160" as="sourcePoint" />
          </mxGeometry>
        </mxCell>
        <mxCell id="QAfETRHvvmFpUVtF6TgT-5" style="edgeStyle=orthogonalEdgeStyle;shape=connector;rounded=0;orthogonalLoop=1;jettySize=auto;html=1;exitX=0;exitY=0.75;exitDx=0;exitDy=0;labelBackgroundColor=default;strokeColor=default;align=center;verticalAlign=middle;fontFamily=Helvetica;fontSize=11;fontColor=default;startArrow=classic;startFill=1;endArrow=none;endFill=0;" edge="1" parent="1">
          <mxGeometry relative="1" as="geometry">
            <mxPoint x="80" y="180" as="targetPoint" />
            <mxPoint x="120.00000000000006" y="180" as="sourcePoint" />
          </mxGeometry>
        </mxCell>
        <mxCell id="QAfETRHvvmFpUVtF6TgT-7" style="edgeStyle=orthogonalEdgeStyle;shape=connector;rounded=0;orthogonalLoop=1;jettySize=auto;html=1;exitX=0;exitY=0.25;exitDx=0;exitDy=0;labelBackgroundColor=default;strokeColor=default;align=center;verticalAlign=middle;fontFamily=Helvetica;fontSize=11;fontColor=default;startArrow=classic;startFill=1;endArrow=none;endFill=0;" edge="1" parent="1">
          <mxGeometry relative="1" as="geometry">
            <mxPoint x="80" y="120.11111111111109" as="targetPoint" />
            <mxPoint x="120.00000000000006" y="120" as="sourcePoint" />
          </mxGeometry>
        </mxCell>
        <mxCell id="QAfETRHvvmFpUVtF6TgT-1" value="2-BIT BINARY MULTIPLIER" style="rounded=0;whiteSpace=wrap;html=1;" vertex="1" parent="1">
          <mxGeometry x="120" y="80" width="160" height="120" as="geometry" />
        </mxCell>
        <mxCell id="QAfETRHvvmFpUVtF6TgT-8" value="$$A_0$$" style="text;html=1;align=center;verticalAlign=middle;resizable=0;points=[];autosize=1;strokeColor=none;fillColor=none;fontSize=11;fontFamily=Helvetica;fontColor=default;" vertex="1" parent="1">
          <mxGeometry x="30" y="80" width="70" height="30" as="geometry" />
        </mxCell>
        <mxCell id="QAfETRHvvmFpUVtF6TgT-9" value="$$A_1$$" style="text;html=1;align=center;verticalAlign=middle;resizable=0;points=[];autosize=1;strokeColor=none;fillColor=none;fontSize=11;fontFamily=Helvetica;fontColor=default;" vertex="1" parent="1">
          <mxGeometry x="30" y="100" width="70" height="30" as="geometry" />
        </mxCell>
        <mxCell id="QAfETRHvvmFpUVtF6TgT-10" value="$$B_0$$" style="text;html=1;align=center;verticalAlign=middle;resizable=0;points=[];autosize=1;strokeColor=none;fillColor=none;fontSize=11;fontFamily=Helvetica;fontColor=default;" vertex="1" parent="1">
          <mxGeometry x="30" y="140" width="70" height="30" as="geometry" />
        </mxCell>
        <mxCell id="QAfETRHvvmFpUVtF6TgT-11" value="$$B_1$$" style="text;html=1;align=center;verticalAlign=middle;resizable=0;points=[];autosize=1;strokeColor=none;fillColor=none;fontSize=11;fontFamily=Helvetica;fontColor=default;" vertex="1" parent="1">
          <mxGeometry x="30" y="160" width="70" height="30" as="geometry" />
        </mxCell>
        <mxCell id="QAfETRHvvmFpUVtF6TgT-12" style="edgeStyle=orthogonalEdgeStyle;rounded=0;orthogonalLoop=1;jettySize=auto;html=1;exitX=0;exitY=0.167;exitDx=0;exitDy=0;endArrow=none;endFill=0;startArrow=classic;startFill=1;exitPerimeter=0;" edge="1" parent="1">
          <mxGeometry relative="1" as="geometry">
            <mxPoint x="280.15999999999997" y="123.4" as="targetPoint" />
            <mxPoint x="360" y="123.04000000000002" as="sourcePoint" />
          </mxGeometry>
        </mxCell>
        <mxCell id="QAfETRHvvmFpUVtF6TgT-13" style="edgeStyle=orthogonalEdgeStyle;shape=connector;rounded=0;orthogonalLoop=1;jettySize=auto;html=1;exitX=0;exitY=0.667;exitDx=0;exitDy=0;labelBackgroundColor=default;strokeColor=default;align=center;verticalAlign=middle;fontFamily=Helvetica;fontSize=11;fontColor=default;startArrow=classic;startFill=1;endArrow=none;endFill=0;exitPerimeter=0;" edge="1" parent="1" source="QAfETRHvvmFpUVtF6TgT-16">
          <mxGeometry relative="1" as="geometry">
            <mxPoint x="280" y="160" as="targetPoint" />
            <mxPoint x="320.00000000000006" y="160" as="sourcePoint" />
          </mxGeometry>
        </mxCell>
        <mxCell id="QAfETRHvvmFpUVtF6TgT-14" style="edgeStyle=orthogonalEdgeStyle;shape=connector;rounded=0;orthogonalLoop=1;jettySize=auto;html=1;exitX=0;exitY=0.833;exitDx=0;exitDy=0;labelBackgroundColor=default;strokeColor=default;align=center;verticalAlign=middle;fontFamily=Helvetica;fontSize=11;fontColor=default;startArrow=classic;startFill=1;endArrow=none;endFill=0;exitPerimeter=0;" edge="1" parent="1" source="QAfETRHvvmFpUVtF6TgT-16">
          <mxGeometry relative="1" as="geometry">
            <mxPoint x="280" y="180" as="targetPoint" />
            <mxPoint x="320.00000000000006" y="180" as="sourcePoint" />
          </mxGeometry>
        </mxCell>
        <mxCell id="QAfETRHvvmFpUVtF6TgT-15" style="edgeStyle=orthogonalEdgeStyle;shape=connector;rounded=0;orthogonalLoop=1;jettySize=auto;html=1;exitX=0;exitY=0.334;exitDx=0;exitDy=0;labelBackgroundColor=default;strokeColor=default;align=center;verticalAlign=middle;fontFamily=Helvetica;fontSize=11;fontColor=default;startArrow=classic;startFill=1;endArrow=none;endFill=0;exitPerimeter=0;" edge="1" parent="1">
          <mxGeometry relative="1" as="geometry">
            <mxPoint x="280" y="143.1111111111111" as="targetPoint" />
            <mxPoint x="360" y="143.08000000000004" as="sourcePoint" />
          </mxGeometry>
        </mxCell>
        <mxCell id="QAfETRHvvmFpUVtF6TgT-16" value="8-BIT BINARY ADDER" style="rounded=0;whiteSpace=wrap;html=1;fontFamily=Helvetica;fontSize=11;fontColor=default;" vertex="1" parent="1">
          <mxGeometry x="360" y="80" width="160" height="120" as="geometry" />
        </mxCell>
        <mxCell id="QAfETRHvvmFpUVtF6TgT-32" style="edgeStyle=orthogonalEdgeStyle;shape=connector;rounded=0;orthogonalLoop=1;jettySize=auto;html=1;exitX=0;exitY=0.5;exitDx=0;exitDy=0;entryX=1;entryY=0.5;entryDx=0;entryDy=0;labelBackgroundColor=default;strokeColor=default;align=center;verticalAlign=middle;fontFamily=Helvetica;fontSize=11;fontColor=default;startArrow=classic;startFill=1;endArrow=none;endFill=0;" edge="1" parent="1" source="QAfETRHvvmFpUVtF6TgT-17" target="QAfETRHvvmFpUVtF6TgT-16">
          <mxGeometry relative="1" as="geometry" />
        </mxCell>
        <mxCell id="QAfETRHvvmFpUVtF6TgT-45" style="edgeStyle=orthogonalEdgeStyle;shape=connector;rounded=0;orthogonalLoop=1;jettySize=auto;html=1;exitX=0.25;exitY=1;exitDx=0;exitDy=0;labelBackgroundColor=default;strokeColor=default;align=center;verticalAlign=middle;fontFamily=Helvetica;fontSize=11;fontColor=default;startArrow=classic;startFill=1;endArrow=none;endFill=0;" edge="1" parent="1" source="QAfETRHvvmFpUVtF6TgT-17">
          <mxGeometry relative="1" as="geometry">
            <mxPoint x="640.1428571428571" y="240" as="targetPoint" />
          </mxGeometry>
        </mxCell>
        <mxCell id="QAfETRHvvmFpUVtF6TgT-46" style="edgeStyle=orthogonalEdgeStyle;shape=connector;rounded=0;orthogonalLoop=1;jettySize=auto;html=1;exitX=0.5;exitY=1;exitDx=0;exitDy=0;labelBackgroundColor=default;strokeColor=default;align=center;verticalAlign=middle;fontFamily=Helvetica;fontSize=11;fontColor=default;startArrow=classic;startFill=1;endArrow=none;endFill=0;" edge="1" parent="1" source="QAfETRHvvmFpUVtF6TgT-17">
          <mxGeometry relative="1" as="geometry">
            <mxPoint x="680.1428571428571" y="240" as="targetPoint" />
          </mxGeometry>
        </mxCell>
        <mxCell id="QAfETRHvvmFpUVtF6TgT-17" value="8-BIT REGISTER" style="rounded=0;whiteSpace=wrap;html=1;fontFamily=Helvetica;fontSize=11;fontColor=default;" vertex="1" parent="1">
          <mxGeometry x="600" y="80" width="160" height="120" as="geometry" />
        </mxCell>
        <mxCell id="QAfETRHvvmFpUVtF6TgT-26" value="$$P_0$$" style="text;html=1;align=center;verticalAlign=middle;resizable=0;points=[];autosize=1;strokeColor=none;fillColor=none;fontSize=11;fontFamily=Helvetica;fontColor=default;" vertex="1" parent="1">
          <mxGeometry x="290" y="100" width="70" height="30" as="geometry" />
        </mxCell>
        <mxCell id="QAfETRHvvmFpUVtF6TgT-27" value="$$P_1$$" style="text;html=1;align=center;verticalAlign=middle;resizable=0;points=[];autosize=1;strokeColor=none;fillColor=none;fontSize=11;fontFamily=Helvetica;fontColor=default;" vertex="1" parent="1">
          <mxGeometry x="290" y="120" width="70" height="30" as="geometry" />
        </mxCell>
        <mxCell id="QAfETRHvvmFpUVtF6TgT-29" value="&amp;nbsp;$$P_3$$" style="text;html=1;align=center;verticalAlign=middle;resizable=0;points=[];autosize=1;strokeColor=none;fillColor=none;fontSize=11;fontFamily=Helvetica;fontColor=default;" vertex="1" parent="1">
          <mxGeometry x="290" y="150" width="70" height="30" as="geometry" />
        </mxCell>
        <mxCell id="QAfETRHvvmFpUVtF6TgT-28" value="$$P_2$$" style="text;html=1;align=center;verticalAlign=middle;resizable=0;points=[];autosize=1;strokeColor=none;fillColor=none;fontSize=11;fontFamily=Helvetica;fontColor=default;" vertex="1" parent="1">
          <mxGeometry x="290" y="137" width="70" height="30" as="geometry" />
        </mxCell>
        <mxCell id="QAfETRHvvmFpUVtF6TgT-37" style="edgeStyle=orthogonalEdgeStyle;shape=connector;rounded=0;orthogonalLoop=1;jettySize=auto;html=1;entryX=0.002;entryY=0.105;entryDx=0;entryDy=0;entryPerimeter=0;labelBackgroundColor=default;strokeColor=default;align=center;verticalAlign=middle;fontFamily=Helvetica;fontSize=11;fontColor=default;startArrow=none;startFill=0;endArrow=classic;endFill=1;" edge="1" parent="1">
          <mxGeometry relative="1" as="geometry">
            <mxPoint x="640" y="80" as="sourcePoint" />
            <mxPoint x="360.31999999999994" y="99.99000000000002" as="targetPoint" />
            <Array as="points">
              <mxPoint x="640" y="67" />
              <mxPoint x="300" y="67" />
              <mxPoint x="300" y="100" />
            </Array>
          </mxGeometry>
        </mxCell>
        <mxCell id="QAfETRHvvmFpUVtF6TgT-39" value="$$C_{old}$$" style="text;html=1;align=center;verticalAlign=middle;resizable=0;points=[];autosize=1;strokeColor=none;fillColor=none;fontSize=11;fontFamily=Helvetica;fontColor=default;" vertex="1" parent="1">
          <mxGeometry x="285" y="76" width="80" height="30" as="geometry" />
        </mxCell>
        <mxCell id="QAfETRHvvmFpUVtF6TgT-40" value="" style="endArrow=none;html=1;rounded=0;labelBackgroundColor=default;strokeColor=default;align=center;verticalAlign=middle;fontFamily=Helvetica;fontSize=11;fontColor=default;shape=connector;" edge="1" parent="1">
          <mxGeometry width="50" height="50" relative="1" as="geometry">
            <mxPoint x="460" y="73" as="sourcePoint" />
            <mxPoint x="470" y="61" as="targetPoint" />
          </mxGeometry>
        </mxCell>
        <mxCell id="QAfETRHvvmFpUVtF6TgT-41" value="8" style="text;html=1;align=center;verticalAlign=middle;resizable=0;points=[];autosize=1;strokeColor=none;fillColor=none;fontSize=11;fontFamily=Helvetica;fontColor=default;" vertex="1" parent="1">
          <mxGeometry x="450" y="40" width="30" height="30" as="geometry" />
        </mxCell>
        <mxCell id="QAfETRHvvmFpUVtF6TgT-42" value="$$C$$" style="text;html=1;align=center;verticalAlign=middle;resizable=0;points=[];autosize=1;strokeColor=none;fillColor=none;fontSize=11;fontFamily=Helvetica;fontColor=default;" vertex="1" parent="1">
          <mxGeometry x="550" y="115" width="60" height="30" as="geometry" />
        </mxCell>
        <mxCell id="QAfETRHvvmFpUVtF6TgT-43" value="" style="endArrow=none;html=1;rounded=0;labelBackgroundColor=default;strokeColor=default;align=center;verticalAlign=middle;fontFamily=Helvetica;fontSize=11;fontColor=default;shape=connector;" edge="1" parent="1">
          <mxGeometry width="50" height="50" relative="1" as="geometry">
            <mxPoint x="540" y="148" as="sourcePoint" />
            <mxPoint x="550" y="136" as="targetPoint" />
          </mxGeometry>
        </mxCell>
        <mxCell id="QAfETRHvvmFpUVtF6TgT-44" value="8" style="text;html=1;align=center;verticalAlign=middle;resizable=0;points=[];autosize=1;strokeColor=none;fillColor=none;fontSize=11;fontFamily=Helvetica;fontColor=default;" vertex="1" parent="1">
          <mxGeometry x="530" y="115" width="30" height="30" as="geometry" />
        </mxCell>
        <mxCell id="QAfETRHvvmFpUVtF6TgT-47" value="CLK" style="text;html=1;align=center;verticalAlign=middle;resizable=0;points=[];autosize=1;strokeColor=none;fillColor=none;fontSize=11;fontFamily=Helvetica;fontColor=default;" vertex="1" parent="1">
          <mxGeometry x="620" y="238" width="40" height="30" as="geometry" />
        </mxCell>
        <mxCell id="QAfETRHvvmFpUVtF6TgT-48" value="Reset" style="text;html=1;align=center;verticalAlign=middle;resizable=0;points=[];autosize=1;strokeColor=none;fillColor=none;fontSize=11;fontFamily=Helvetica;fontColor=default;" vertex="1" parent="1">
          <mxGeometry x="655" y="238" width="50" height="30" as="geometry" />
        </mxCell>
      </root>
    </mxGraphModel>
  </diagram>
</mxfile>
